<svg xmlns="http://www.w3.org/2000/svg" xmlns:xlink="http://www.w3.org/1999/xlink" width="500" zoomAndPan="magnify" viewBox="0 0 375 374.999991" height="500" preserveAspectRatio="xMidYMid meet" version="1.0"><defs><g/><clipPath id="d4f901f303"><path d="M 37.5 37.5 L 183.398438 37.5 L 183.398438 64 L 37.5 64 Z M 37.5 37.5 " clip-rule="nonzero"/></clipPath><clipPath id="4f1c530c05"><path d="M 50.964844 37.5 L 169.839844 37.5 C 177.277344 37.5 183.308594 43.527344 183.308594 50.964844 C 183.308594 58.402344 177.277344 64.433594 169.839844 64.433594 L 50.964844 64.433594 C 43.527344 64.433594 37.5 58.402344 37.5 50.964844 C 37.5 43.527344 43.527344 37.5 50.964844 37.5 " clip-rule="nonzero"/></clipPath><clipPath id="7d8f6e854b"><path d="M 37.5 84.53125 L 183.398438 84.53125 L 183.398438 111 L 37.5 111 Z M 37.5 84.53125 " clip-rule="nonzero"/></clipPath><clipPath id="fd0f26843c"><path d="M 50.964844 84.53125 L 169.839844 84.53125 C 177.277344 84.53125 183.308594 90.558594 183.308594 97.996094 C 183.308594 105.433594 177.277344 111.464844 169.839844 111.464844 L 50.964844 111.464844 C 43.527344 111.464844 37.5 105.433594 37.5 97.996094 C 37.5 90.558594 43.527344 84.53125 50.964844 84.53125 " clip-rule="nonzero"/></clipPath><clipPath id="043a086b49"><path d="M 37.5 131.714844 L 183.398438 131.714844 L 183.398438 159 L 37.5 159 Z M 37.5 131.714844 " clip-rule="nonzero"/></clipPath><clipPath id="6c89e52e5f"><path d="M 50.964844 131.714844 L 169.839844 131.714844 C 177.277344 131.714844 183.308594 137.742188 183.308594 145.179688 C 183.308594 152.617188 177.277344 158.648438 169.839844 158.648438 L 50.964844 158.648438 C 43.527344 158.648438 37.5 152.617188 37.5 145.179688 C 37.5 137.742188 43.527344 131.714844 50.964844 131.714844 " clip-rule="nonzero"/></clipPath><clipPath id="739f1d6a28"><path d="M 37.5 178.898438 L 183.398438 178.898438 L 183.398438 206 L 37.5 206 Z M 37.5 178.898438 " clip-rule="nonzero"/></clipPath><clipPath id="9befcf93a4"><path d="M 50.964844 178.898438 L 169.839844 178.898438 C 177.277344 178.898438 183.308594 184.925781 183.308594 192.363281 C 183.308594 199.800781 177.277344 205.832031 169.839844 205.832031 L 50.964844 205.832031 C 43.527344 205.832031 37.5 199.800781 37.5 192.363281 C 37.5 184.925781 43.527344 178.898438 50.964844 178.898438 " clip-rule="nonzero"/></clipPath><clipPath id="bdf38dd5fb"><path d="M 37.5 226.082031 L 183.398438 226.082031 L 183.398438 253 L 37.5 253 Z M 37.5 226.082031 " clip-rule="nonzero"/></clipPath><clipPath id="81dd7a9071"><path d="M 50.964844 226.082031 L 169.839844 226.082031 C 177.277344 226.082031 183.308594 232.109375 183.308594 239.546875 C 183.308594 246.984375 177.277344 253.015625 169.839844 253.015625 L 50.964844 253.015625 C 43.527344 253.015625 37.5 246.984375 37.5 239.546875 C 37.5 232.109375 43.527344 226.082031 50.964844 226.082031 " clip-rule="nonzero"/></clipPath></defs><g clip-path="url(#d4f901f303)"><g clip-path="url(#4f1c530c05)"><path fill="#dcdcdc" d="M 37.5 37.5 L 183.398438 37.5 L 183.398438 63.867188 L 37.5 63.867188 Z M 37.5 37.5 " fill-opacity="1" fill-rule="nonzero"/></g></g><g fill="#000000" fill-opacity="1"><g transform="translate(86.257185, 55.499996)"><g><path d="M 0.75 -2.90625 L 0.3125 -2.90625 L 0.3125 -3.703125 L 0.875 -3.703125 L 1.015625 -4.671875 L 0.34375 -4.671875 L 0.34375 -5.484375 L 1.125 -5.484375 L 1.5 -8.09375 L 2.5625 -8.09375 L 2.1875 -5.484375 L 3.09375 -5.484375 L 3.46875 -8.09375 L 4.53125 -8.09375 L 4.15625 -5.484375 L 4.5625 -5.484375 L 4.5625 -4.671875 L 4.046875 -4.671875 L 3.890625 -3.703125 L 4.53125 -3.703125 L 4.53125 -2.90625 L 3.78125 -2.90625 L 3.359375 0 L 2.296875 0 L 2.703125 -2.90625 L 1.8125 -2.90625 L 1.40625 0 L 0.34375 0 Z M 2.828125 -3.703125 L 2.96875 -4.671875 L 2.078125 -4.671875 L 1.9375 -3.703125 Z M 2.828125 -3.703125 "/></g></g></g><g fill="#000000" fill-opacity="1"><g transform="translate(93.145264, 55.499996)"><g><path d="M 0.625 -8.09375 L 2.390625 -8.09375 C 3.265625 -8.09375 3.882812 -7.894531 4.25 -7.5 C 4.613281 -7.101562 4.796875 -6.476562 4.796875 -5.625 L 4.796875 -2.65625 C 4.796875 -1.757812 4.613281 -1.09375 4.25 -0.65625 C 3.894531 -0.21875 3.304688 0 2.484375 0 L 0.625 0 Z M 2.40625 -0.8125 C 2.789062 -0.8125 3.070312 -0.882812 3.25 -1.03125 C 3.425781 -1.1875 3.535156 -1.394531 3.578125 -1.65625 C 3.628906 -1.925781 3.65625 -2.328125 3.65625 -2.859375 L 3.65625 -5.484375 C 3.65625 -5.953125 3.625 -6.304688 3.5625 -6.546875 C 3.507812 -6.785156 3.390625 -6.960938 3.203125 -7.078125 C 3.023438 -7.203125 2.75 -7.265625 2.375 -7.265625 L 1.765625 -7.265625 L 1.765625 -0.8125 Z M 2.40625 -0.8125 "/></g></g></g><g fill="#000000" fill-opacity="1"><g transform="translate(100.44318, 55.499996)"><g><path d="M 2.65625 0.09375 C 1.851562 0.09375 1.289062 -0.144531 0.96875 -0.625 C 0.644531 -1.101562 0.484375 -1.757812 0.484375 -2.59375 L 0.484375 -5.453125 C 0.484375 -6.347656 0.640625 -7.023438 0.953125 -7.484375 C 1.273438 -7.941406 1.84375 -8.171875 2.65625 -8.171875 C 3.382812 -8.171875 3.90625 -7.972656 4.21875 -7.578125 C 4.539062 -7.179688 4.703125 -6.601562 4.703125 -5.84375 L 4.703125 -5.203125 L 3.625 -5.203125 L 3.625 -5.765625 C 3.625 -6.140625 3.609375 -6.425781 3.578125 -6.625 C 3.546875 -6.832031 3.460938 -6.992188 3.328125 -7.109375 C 3.191406 -7.234375 2.972656 -7.296875 2.671875 -7.296875 C 2.359375 -7.296875 2.128906 -7.226562 1.984375 -7.09375 C 1.835938 -6.96875 1.738281 -6.785156 1.6875 -6.546875 C 1.644531 -6.316406 1.625 -6.007812 1.625 -5.625 L 1.625 -2.421875 C 1.625 -2.003906 1.65625 -1.675781 1.71875 -1.4375 C 1.78125 -1.207031 1.882812 -1.039062 2.03125 -0.9375 C 2.1875 -0.84375 2.398438 -0.796875 2.671875 -0.796875 C 2.953125 -0.796875 3.160156 -0.859375 3.296875 -0.984375 C 3.441406 -1.117188 3.53125 -1.296875 3.5625 -1.515625 C 3.601562 -1.734375 3.625 -2.03125 3.625 -2.40625 L 3.625 -3.015625 L 4.703125 -3.015625 L 4.703125 -2.40625 C 4.703125 -1.601562 4.550781 -0.984375 4.25 -0.546875 C 3.945312 -0.117188 3.414062 0.09375 2.65625 0.09375 Z M 2.65625 0.09375 "/></g></g></g><g fill="#000000" fill-opacity="1"><g transform="translate(107.621138, 55.499996)"><g><path d="M 0.625 -8.09375 L 2.390625 -8.09375 C 3.265625 -8.09375 3.882812 -7.894531 4.25 -7.5 C 4.613281 -7.101562 4.796875 -6.476562 4.796875 -5.625 L 4.796875 -2.65625 C 4.796875 -1.757812 4.613281 -1.09375 4.25 -0.65625 C 3.894531 -0.21875 3.304688 0 2.484375 0 L 0.625 0 Z M 2.40625 -0.8125 C 2.789062 -0.8125 3.070312 -0.882812 3.25 -1.03125 C 3.425781 -1.1875 3.535156 -1.394531 3.578125 -1.65625 C 3.628906 -1.925781 3.65625 -2.328125 3.65625 -2.859375 L 3.65625 -5.484375 C 3.65625 -5.953125 3.625 -6.304688 3.5625 -6.546875 C 3.507812 -6.785156 3.390625 -6.960938 3.203125 -7.078125 C 3.023438 -7.203125 2.75 -7.265625 2.375 -7.265625 L 1.765625 -7.265625 L 1.765625 -0.8125 Z M 2.40625 -0.8125 "/></g></g></g><g fill="#000000" fill-opacity="1"><g transform="translate(114.919054, 55.499996)"><g><path d="M 2.65625 0.09375 C 1.851562 0.09375 1.289062 -0.144531 0.96875 -0.625 C 0.644531 -1.101562 0.484375 -1.757812 0.484375 -2.59375 L 0.484375 -5.453125 C 0.484375 -6.347656 0.640625 -7.023438 0.953125 -7.484375 C 1.273438 -7.941406 1.84375 -8.171875 2.65625 -8.171875 C 3.382812 -8.171875 3.90625 -7.972656 4.21875 -7.578125 C 4.539062 -7.179688 4.703125 -6.601562 4.703125 -5.84375 L 4.703125 -5.203125 L 3.625 -5.203125 L 3.625 -5.765625 C 3.625 -6.140625 3.609375 -6.425781 3.578125 -6.625 C 3.546875 -6.832031 3.460938 -6.992188 3.328125 -7.109375 C 3.191406 -7.234375 2.972656 -7.296875 2.671875 -7.296875 C 2.359375 -7.296875 2.128906 -7.226562 1.984375 -7.09375 C 1.835938 -6.96875 1.738281 -6.785156 1.6875 -6.546875 C 1.644531 -6.316406 1.625 -6.007812 1.625 -5.625 L 1.625 -2.421875 C 1.625 -2.003906 1.65625 -1.675781 1.71875 -1.4375 C 1.78125 -1.207031 1.882812 -1.039062 2.03125 -0.9375 C 2.1875 -0.84375 2.398438 -0.796875 2.671875 -0.796875 C 2.953125 -0.796875 3.160156 -0.859375 3.296875 -0.984375 C 3.441406 -1.117188 3.53125 -1.296875 3.5625 -1.515625 C 3.601562 -1.734375 3.625 -2.03125 3.625 -2.40625 L 3.625 -3.015625 L 4.703125 -3.015625 L 4.703125 -2.40625 C 4.703125 -1.601562 4.550781 -0.984375 4.25 -0.546875 C 3.945312 -0.117188 3.414062 0.09375 2.65625 0.09375 Z M 2.65625 0.09375 "/></g></g></g><g fill="#000000" fill-opacity="1"><g transform="translate(122.097011, 55.499996)"><g><path d="M 0.625 -8.09375 L 2.390625 -8.09375 C 3.265625 -8.09375 3.882812 -7.894531 4.25 -7.5 C 4.613281 -7.101562 4.796875 -6.476562 4.796875 -5.625 L 4.796875 -2.65625 C 4.796875 -1.757812 4.613281 -1.09375 4.25 -0.65625 C 3.894531 -0.21875 3.304688 0 2.484375 0 L 0.625 0 Z M 2.40625 -0.8125 C 2.789062 -0.8125 3.070312 -0.882812 3.25 -1.03125 C 3.425781 -1.1875 3.535156 -1.394531 3.578125 -1.65625 C 3.628906 -1.925781 3.65625 -2.328125 3.65625 -2.859375 L 3.65625 -5.484375 C 3.65625 -5.953125 3.625 -6.304688 3.5625 -6.546875 C 3.507812 -6.785156 3.390625 -6.960938 3.203125 -7.078125 C 3.023438 -7.203125 2.75 -7.265625 2.375 -7.265625 L 1.765625 -7.265625 L 1.765625 -0.8125 Z M 2.40625 -0.8125 "/></g></g></g><g fill="#000000" fill-opacity="1"><g transform="translate(129.394925, 55.499996)"><g><path d="M 2.65625 0.09375 C 1.851562 0.09375 1.289062 -0.144531 0.96875 -0.625 C 0.644531 -1.101562 0.484375 -1.757812 0.484375 -2.59375 L 0.484375 -5.453125 C 0.484375 -6.347656 0.640625 -7.023438 0.953125 -7.484375 C 1.273438 -7.941406 1.84375 -8.171875 2.65625 -8.171875 C 3.382812 -8.171875 3.90625 -7.972656 4.21875 -7.578125 C 4.539062 -7.179688 4.703125 -6.601562 4.703125 -5.84375 L 4.703125 -5.203125 L 3.625 -5.203125 L 3.625 -5.765625 C 3.625 -6.140625 3.609375 -6.425781 3.578125 -6.625 C 3.546875 -6.832031 3.460938 -6.992188 3.328125 -7.109375 C 3.191406 -7.234375 2.972656 -7.296875 2.671875 -7.296875 C 2.359375 -7.296875 2.128906 -7.226562 1.984375 -7.09375 C 1.835938 -6.96875 1.738281 -6.785156 1.6875 -6.546875 C 1.644531 -6.316406 1.625 -6.007812 1.625 -5.625 L 1.625 -2.421875 C 1.625 -2.003906 1.65625 -1.675781 1.71875 -1.4375 C 1.78125 -1.207031 1.882812 -1.039062 2.03125 -0.9375 C 2.1875 -0.84375 2.398438 -0.796875 2.671875 -0.796875 C 2.953125 -0.796875 3.160156 -0.859375 3.296875 -0.984375 C 3.441406 -1.117188 3.53125 -1.296875 3.5625 -1.515625 C 3.601562 -1.734375 3.625 -2.03125 3.625 -2.40625 L 3.625 -3.015625 L 4.703125 -3.015625 L 4.703125 -2.40625 C 4.703125 -1.601562 4.550781 -0.984375 4.25 -0.546875 C 3.945312 -0.117188 3.414062 0.09375 2.65625 0.09375 Z M 2.65625 0.09375 "/></g></g></g><g clip-path="url(#7d8f6e854b)"><g clip-path="url(#fd0f26843c)"><path fill="#f23b3e" d="M 37.5 84.53125 L 183.398438 84.53125 L 183.398438 110.898438 L 37.5 110.898438 Z M 37.5 84.53125 " fill-opacity="1" fill-rule="nonzero"/></g></g><g clip-path="url(#043a086b49)"><g clip-path="url(#6c89e52e5f)"><path fill="#1db8b8" d="M 37.5 131.714844 L 183.398438 131.714844 L 183.398438 158.082031 L 37.5 158.082031 Z M 37.5 131.714844 " fill-opacity="1" fill-rule="nonzero"/></g></g><g fill="#000000" fill-opacity="1"><g transform="translate(87.042341, 149.713994)"><g><path d="M 0.75 -2.90625 L 0.3125 -2.90625 L 0.3125 -3.703125 L 0.875 -3.703125 L 1.015625 -4.671875 L 0.34375 -4.671875 L 0.34375 -5.484375 L 1.125 -5.484375 L 1.5 -8.09375 L 2.5625 -8.09375 L 2.1875 -5.484375 L 3.09375 -5.484375 L 3.46875 -8.09375 L 4.53125 -8.09375 L 4.15625 -5.484375 L 4.5625 -5.484375 L 4.5625 -4.671875 L 4.046875 -4.671875 L 3.890625 -3.703125 L 4.53125 -3.703125 L 4.53125 -2.90625 L 3.78125 -2.90625 L 3.359375 0 L 2.296875 0 L 2.703125 -2.90625 L 1.8125 -2.90625 L 1.40625 0 L 0.34375 0 Z M 2.828125 -3.703125 L 2.96875 -4.671875 L 2.078125 -4.671875 L 1.9375 -3.703125 Z M 2.828125 -3.703125 "/></g></g></g><g fill="#000000" fill-opacity="1"><g transform="translate(93.930421, 149.713994)"><g><path d="M 1.703125 -6.703125 C 1.691406 -6.679688 1.488281 -6.632812 1.09375 -6.5625 C 0.707031 -6.488281 0.441406 -6.4375 0.296875 -6.40625 L 0.296875 -7.21875 C 1.109375 -7.414062 1.664062 -7.707031 1.96875 -8.09375 L 2.78125 -8.09375 L 2.78125 0 L 1.703125 0 Z M 1.703125 -6.703125 "/></g></g></g><g fill="#000000" fill-opacity="1"><g transform="translate(99.918857, 149.713994)"><g><path d="M 0.625 -8.09375 L 2.390625 -8.09375 C 3.265625 -8.09375 3.882812 -7.894531 4.25 -7.5 C 4.613281 -7.101562 4.796875 -6.476562 4.796875 -5.625 L 4.796875 -2.65625 C 4.796875 -1.757812 4.613281 -1.09375 4.25 -0.65625 C 3.894531 -0.21875 3.304688 0 2.484375 0 L 0.625 0 Z M 2.40625 -0.8125 C 2.789062 -0.8125 3.070312 -0.882812 3.25 -1.03125 C 3.425781 -1.1875 3.535156 -1.394531 3.578125 -1.65625 C 3.628906 -1.925781 3.65625 -2.328125 3.65625 -2.859375 L 3.65625 -5.484375 C 3.65625 -5.953125 3.625 -6.304688 3.5625 -6.546875 C 3.507812 -6.785156 3.390625 -6.960938 3.203125 -7.078125 C 3.023438 -7.203125 2.75 -7.265625 2.375 -7.265625 L 1.765625 -7.265625 L 1.765625 -0.8125 Z M 2.40625 -0.8125 "/></g></g></g><g fill="#000000" fill-opacity="1"><g transform="translate(107.216773, 149.713994)"><g><path d="M 0.625 -8.09375 L 2.484375 -8.09375 C 3.222656 -8.09375 3.769531 -7.925781 4.125 -7.59375 C 4.476562 -7.269531 4.65625 -6.757812 4.65625 -6.0625 C 4.65625 -5.03125 4.265625 -4.460938 3.484375 -4.359375 C 3.960938 -4.242188 4.3125 -4.019531 4.53125 -3.6875 C 4.757812 -3.351562 4.875 -2.894531 4.875 -2.3125 C 4.875 -1.582031 4.703125 -1.015625 4.359375 -0.609375 C 4.015625 -0.203125 3.492188 0 2.796875 0 L 0.625 0 Z M 2.4375 -4.71875 C 2.894531 -4.71875 3.210938 -4.816406 3.390625 -5.015625 C 3.578125 -5.222656 3.671875 -5.570312 3.671875 -6.0625 C 3.671875 -6.425781 3.613281 -6.691406 3.5 -6.859375 C 3.394531 -7.035156 3.234375 -7.144531 3.015625 -7.1875 C 2.796875 -7.238281 2.46875 -7.265625 2.03125 -7.265625 L 1.765625 -7.265625 L 1.765625 -4.71875 Z M 2.515625 -0.8125 C 2.847656 -0.8125 3.101562 -0.863281 3.28125 -0.96875 C 3.46875 -1.070312 3.597656 -1.226562 3.671875 -1.4375 C 3.753906 -1.65625 3.796875 -1.945312 3.796875 -2.3125 C 3.796875 -2.832031 3.6875 -3.21875 3.46875 -3.46875 C 3.257812 -3.726562 2.914062 -3.859375 2.4375 -3.859375 L 1.765625 -3.859375 L 1.765625 -0.8125 Z M 2.515625 -0.8125 "/></g></g></g><g fill="#000000" fill-opacity="1"><g transform="translate(114.484705, 149.713994)"><g><path d="M 2.5 0.09375 C 1.789062 0.09375 1.28125 -0.109375 0.96875 -0.515625 C 0.65625 -0.921875 0.5 -1.507812 0.5 -2.28125 C 0.5 -2.789062 0.582031 -3.195312 0.75 -3.5 C 0.925781 -3.8125 1.175781 -4.066406 1.5 -4.265625 C 0.894531 -4.671875 0.59375 -5.273438 0.59375 -6.078125 C 0.59375 -6.734375 0.75 -7.242188 1.0625 -7.609375 C 1.382812 -7.984375 1.863281 -8.171875 2.5 -8.171875 C 3.132812 -8.171875 3.601562 -7.984375 3.90625 -7.609375 C 4.21875 -7.242188 4.375 -6.734375 4.375 -6.078125 C 4.375 -5.648438 4.296875 -5.289062 4.140625 -5 C 3.992188 -4.707031 3.773438 -4.460938 3.484375 -4.265625 C 3.804688 -4.054688 4.050781 -3.800781 4.21875 -3.5 C 4.394531 -3.195312 4.484375 -2.789062 4.484375 -2.28125 C 4.484375 -1.519531 4.328125 -0.929688 4.015625 -0.515625 C 3.703125 -0.109375 3.195312 0.09375 2.5 0.09375 Z M 2.5 -4.765625 C 3.050781 -4.765625 3.328125 -5.222656 3.328125 -6.140625 C 3.328125 -6.503906 3.257812 -6.796875 3.125 -7.015625 C 3 -7.234375 2.789062 -7.34375 2.5 -7.34375 C 2.207031 -7.34375 1.992188 -7.234375 1.859375 -7.015625 C 1.722656 -6.796875 1.65625 -6.503906 1.65625 -6.140625 C 1.65625 -5.742188 1.71875 -5.414062 1.84375 -5.15625 C 1.96875 -4.894531 2.1875 -4.765625 2.5 -4.765625 Z M 2.5 -0.765625 C 2.863281 -0.765625 3.113281 -0.894531 3.25 -1.15625 C 3.382812 -1.414062 3.453125 -1.785156 3.453125 -2.265625 C 3.453125 -2.691406 3.378906 -3.039062 3.234375 -3.3125 C 3.085938 -3.59375 2.84375 -3.734375 2.5 -3.734375 C 2.15625 -3.734375 1.90625 -3.59375 1.75 -3.3125 C 1.59375 -3.039062 1.515625 -2.691406 1.515625 -2.265625 C 1.515625 -1.785156 1.585938 -1.414062 1.734375 -1.15625 C 1.878906 -0.894531 2.132812 -0.765625 2.5 -0.765625 Z M 2.5 -0.765625 "/></g></g></g><g fill="#000000" fill-opacity="1"><g transform="translate(121.502731, 149.713994)"><g><path d="M 0.625 -8.09375 L 2.484375 -8.09375 C 3.222656 -8.09375 3.769531 -7.925781 4.125 -7.59375 C 4.476562 -7.269531 4.65625 -6.757812 4.65625 -6.0625 C 4.65625 -5.03125 4.265625 -4.460938 3.484375 -4.359375 C 3.960938 -4.242188 4.3125 -4.019531 4.53125 -3.6875 C 4.757812 -3.351562 4.875 -2.894531 4.875 -2.3125 C 4.875 -1.582031 4.703125 -1.015625 4.359375 -0.609375 C 4.015625 -0.203125 3.492188 0 2.796875 0 L 0.625 0 Z M 2.4375 -4.71875 C 2.894531 -4.71875 3.210938 -4.816406 3.390625 -5.015625 C 3.578125 -5.222656 3.671875 -5.570312 3.671875 -6.0625 C 3.671875 -6.425781 3.613281 -6.691406 3.5 -6.859375 C 3.394531 -7.035156 3.234375 -7.144531 3.015625 -7.1875 C 2.796875 -7.238281 2.46875 -7.265625 2.03125 -7.265625 L 1.765625 -7.265625 L 1.765625 -4.71875 Z M 2.515625 -0.8125 C 2.847656 -0.8125 3.101562 -0.863281 3.28125 -0.96875 C 3.46875 -1.070312 3.597656 -1.226562 3.671875 -1.4375 C 3.753906 -1.65625 3.796875 -1.945312 3.796875 -2.3125 C 3.796875 -2.832031 3.6875 -3.21875 3.46875 -3.46875 C 3.257812 -3.726562 2.914062 -3.859375 2.4375 -3.859375 L 1.765625 -3.859375 L 1.765625 -0.8125 Z M 2.515625 -0.8125 "/></g></g></g><g fill="#000000" fill-opacity="1"><g transform="translate(128.770661, 149.713994)"><g><path d="M 2.5 0.09375 C 1.789062 0.09375 1.28125 -0.109375 0.96875 -0.515625 C 0.65625 -0.921875 0.5 -1.507812 0.5 -2.28125 C 0.5 -2.789062 0.582031 -3.195312 0.75 -3.5 C 0.925781 -3.8125 1.175781 -4.066406 1.5 -4.265625 C 0.894531 -4.671875 0.59375 -5.273438 0.59375 -6.078125 C 0.59375 -6.734375 0.75 -7.242188 1.0625 -7.609375 C 1.382812 -7.984375 1.863281 -8.171875 2.5 -8.171875 C 3.132812 -8.171875 3.601562 -7.984375 3.90625 -7.609375 C 4.21875 -7.242188 4.375 -6.734375 4.375 -6.078125 C 4.375 -5.648438 4.296875 -5.289062 4.140625 -5 C 3.992188 -4.707031 3.773438 -4.460938 3.484375 -4.265625 C 3.804688 -4.054688 4.050781 -3.800781 4.21875 -3.5 C 4.394531 -3.195312 4.484375 -2.789062 4.484375 -2.28125 C 4.484375 -1.519531 4.328125 -0.929688 4.015625 -0.515625 C 3.703125 -0.109375 3.195312 0.09375 2.5 0.09375 Z M 2.5 -4.765625 C 3.050781 -4.765625 3.328125 -5.222656 3.328125 -6.140625 C 3.328125 -6.503906 3.257812 -6.796875 3.125 -7.015625 C 3 -7.234375 2.789062 -7.34375 2.5 -7.34375 C 2.207031 -7.34375 1.992188 -7.234375 1.859375 -7.015625 C 1.722656 -6.796875 1.65625 -6.503906 1.65625 -6.140625 C 1.65625 -5.742188 1.71875 -5.414062 1.84375 -5.15625 C 1.96875 -4.894531 2.1875 -4.765625 2.5 -4.765625 Z M 2.5 -0.765625 C 2.863281 -0.765625 3.113281 -0.894531 3.25 -1.15625 C 3.382812 -1.414062 3.453125 -1.785156 3.453125 -2.265625 C 3.453125 -2.691406 3.378906 -3.039062 3.234375 -3.3125 C 3.085938 -3.59375 2.84375 -3.734375 2.5 -3.734375 C 2.15625 -3.734375 1.90625 -3.59375 1.75 -3.3125 C 1.59375 -3.039062 1.515625 -2.691406 1.515625 -2.265625 C 1.515625 -1.785156 1.585938 -1.414062 1.734375 -1.15625 C 1.878906 -0.894531 2.132812 -0.765625 2.5 -0.765625 Z M 2.5 -0.765625 "/></g></g></g><g clip-path="url(#739f1d6a28)"><g clip-path="url(#9befcf93a4)"><path fill="#6c696d" d="M 37.5 178.898438 L 183.398438 178.898438 L 183.398438 205.265625 L 37.5 205.265625 Z M 37.5 178.898438 " fill-opacity="1" fill-rule="nonzero"/></g></g><g fill="#000000" fill-opacity="1"><g transform="translate(86.620466, 196.897429)"><g><path d="M 0.75 -2.90625 L 0.3125 -2.90625 L 0.3125 -3.703125 L 0.875 -3.703125 L 1.015625 -4.671875 L 0.34375 -4.671875 L 0.34375 -5.484375 L 1.125 -5.484375 L 1.5 -8.09375 L 2.5625 -8.09375 L 2.1875 -5.484375 L 3.09375 -5.484375 L 3.46875 -8.09375 L 4.53125 -8.09375 L 4.15625 -5.484375 L 4.5625 -5.484375 L 4.5625 -4.671875 L 4.046875 -4.671875 L 3.890625 -3.703125 L 4.53125 -3.703125 L 4.53125 -2.90625 L 3.78125 -2.90625 L 3.359375 0 L 2.296875 0 L 2.703125 -2.90625 L 1.8125 -2.90625 L 1.40625 0 L 0.34375 0 Z M 2.828125 -3.703125 L 2.96875 -4.671875 L 2.078125 -4.671875 L 1.9375 -3.703125 Z M 2.828125 -3.703125 "/></g></g></g><g fill="#000000" fill-opacity="1"><g transform="translate(93.508546, 196.897429)"><g><path d="M 2.5625 0.09375 C 1.894531 0.09375 1.394531 -0.148438 1.0625 -0.640625 C 0.738281 -1.128906 0.578125 -1.769531 0.578125 -2.5625 L 0.578125 -5.296875 C 0.578125 -6.171875 0.726562 -6.867188 1.03125 -7.390625 C 1.34375 -7.910156 1.851562 -8.171875 2.5625 -8.171875 C 3.195312 -8.171875 3.679688 -8 4.015625 -7.65625 C 4.359375 -7.320312 4.535156 -6.835938 4.546875 -6.203125 L 4.5625 -6.078125 L 3.484375 -6.078125 C 3.484375 -6.492188 3.414062 -6.800781 3.28125 -7 C 3.144531 -7.195312 2.90625 -7.296875 2.5625 -7.296875 C 1.957031 -7.296875 1.65625 -6.71875 1.65625 -5.5625 L 1.65625 -4.328125 C 1.757812 -4.503906 1.910156 -4.640625 2.109375 -4.734375 C 2.316406 -4.835938 2.554688 -4.890625 2.828125 -4.890625 C 3.460938 -4.890625 3.910156 -4.6875 4.171875 -4.28125 C 4.441406 -3.882812 4.578125 -3.304688 4.578125 -2.546875 C 4.578125 -1.753906 4.410156 -1.113281 4.078125 -0.625 C 3.753906 -0.144531 3.25 0.09375 2.5625 0.09375 Z M 2.5625 -0.796875 C 2.894531 -0.796875 3.132812 -0.929688 3.28125 -1.203125 C 3.425781 -1.484375 3.5 -1.847656 3.5 -2.296875 C 3.5 -2.703125 3.484375 -3.023438 3.453125 -3.265625 C 3.421875 -3.503906 3.335938 -3.695312 3.203125 -3.84375 C 3.066406 -4 2.851562 -4.078125 2.5625 -4.078125 C 2.363281 -4.078125 2.1875 -4.023438 2.03125 -3.921875 C 1.875 -3.816406 1.75 -3.6875 1.65625 -3.53125 L 1.65625 -2.3125 C 1.65625 -1.851562 1.722656 -1.484375 1.859375 -1.203125 C 2.003906 -0.929688 2.238281 -0.796875 2.5625 -0.796875 Z M 2.5625 -0.796875 "/></g></g></g><g fill="#000000" fill-opacity="1"><g transform="translate(100.566559, 196.897429)"><g><path d="M 2.65625 0.09375 C 1.851562 0.09375 1.289062 -0.144531 0.96875 -0.625 C 0.644531 -1.101562 0.484375 -1.757812 0.484375 -2.59375 L 0.484375 -5.453125 C 0.484375 -6.347656 0.640625 -7.023438 0.953125 -7.484375 C 1.273438 -7.941406 1.84375 -8.171875 2.65625 -8.171875 C 3.382812 -8.171875 3.90625 -7.972656 4.21875 -7.578125 C 4.539062 -7.179688 4.703125 -6.601562 4.703125 -5.84375 L 4.703125 -5.203125 L 3.625 -5.203125 L 3.625 -5.765625 C 3.625 -6.140625 3.609375 -6.425781 3.578125 -6.625 C 3.546875 -6.832031 3.460938 -6.992188 3.328125 -7.109375 C 3.191406 -7.234375 2.972656 -7.296875 2.671875 -7.296875 C 2.359375 -7.296875 2.128906 -7.226562 1.984375 -7.09375 C 1.835938 -6.96875 1.738281 -6.785156 1.6875 -6.546875 C 1.644531 -6.316406 1.625 -6.007812 1.625 -5.625 L 1.625 -2.421875 C 1.625 -2.003906 1.65625 -1.675781 1.71875 -1.4375 C 1.78125 -1.207031 1.882812 -1.039062 2.03125 -0.9375 C 2.1875 -0.84375 2.398438 -0.796875 2.671875 -0.796875 C 2.953125 -0.796875 3.160156 -0.859375 3.296875 -0.984375 C 3.441406 -1.117188 3.53125 -1.296875 3.5625 -1.515625 C 3.601562 -1.734375 3.625 -2.03125 3.625 -2.40625 L 3.625 -3.015625 L 4.703125 -3.015625 L 4.703125 -2.40625 C 4.703125 -1.601562 4.550781 -0.984375 4.25 -0.546875 C 3.945312 -0.117188 3.414062 0.09375 2.65625 0.09375 Z M 2.65625 0.09375 "/></g></g></g><g fill="#000000" fill-opacity="1"><g transform="translate(107.744517, 196.897429)"><g><path d="M 2.5625 0.09375 C 1.894531 0.09375 1.394531 -0.148438 1.0625 -0.640625 C 0.738281 -1.128906 0.578125 -1.769531 0.578125 -2.5625 L 0.578125 -5.296875 C 0.578125 -6.171875 0.726562 -6.867188 1.03125 -7.390625 C 1.34375 -7.910156 1.851562 -8.171875 2.5625 -8.171875 C 3.195312 -8.171875 3.679688 -8 4.015625 -7.65625 C 4.359375 -7.320312 4.535156 -6.835938 4.546875 -6.203125 L 4.5625 -6.078125 L 3.484375 -6.078125 C 3.484375 -6.492188 3.414062 -6.800781 3.28125 -7 C 3.144531 -7.195312 2.90625 -7.296875 2.5625 -7.296875 C 1.957031 -7.296875 1.65625 -6.71875 1.65625 -5.5625 L 1.65625 -4.328125 C 1.757812 -4.503906 1.910156 -4.640625 2.109375 -4.734375 C 2.316406 -4.835938 2.554688 -4.890625 2.828125 -4.890625 C 3.460938 -4.890625 3.910156 -4.6875 4.171875 -4.28125 C 4.441406 -3.882812 4.578125 -3.304688 4.578125 -2.546875 C 4.578125 -1.753906 4.410156 -1.113281 4.078125 -0.625 C 3.753906 -0.144531 3.25 0.09375 2.5625 0.09375 Z M 2.5625 -0.796875 C 2.894531 -0.796875 3.132812 -0.929688 3.28125 -1.203125 C 3.425781 -1.484375 3.5 -1.847656 3.5 -2.296875 C 3.5 -2.703125 3.484375 -3.023438 3.453125 -3.265625 C 3.421875 -3.503906 3.335938 -3.695312 3.203125 -3.84375 C 3.066406 -4 2.851562 -4.078125 2.5625 -4.078125 C 2.363281 -4.078125 2.1875 -4.023438 2.03125 -3.921875 C 1.875 -3.816406 1.75 -3.6875 1.65625 -3.53125 L 1.65625 -2.3125 C 1.65625 -1.851562 1.722656 -1.484375 1.859375 -1.203125 C 2.003906 -0.929688 2.238281 -0.796875 2.5625 -0.796875 Z M 2.5625 -0.796875 "/></g></g></g><g fill="#000000" fill-opacity="1"><g transform="translate(114.80253, 196.897429)"><g><path d="M 2.453125 0.09375 C 1.816406 0.09375 1.328125 -0.078125 0.984375 -0.421875 C 0.648438 -0.773438 0.472656 -1.273438 0.453125 -1.921875 L 0.453125 -2.015625 L 1.53125 -2.015625 C 1.53125 -1.597656 1.597656 -1.289062 1.734375 -1.09375 C 1.867188 -0.894531 2.109375 -0.796875 2.453125 -0.796875 C 3.054688 -0.796875 3.359375 -1.375 3.359375 -2.53125 L 3.359375 -3.765625 C 3.253906 -3.585938 3.101562 -3.445312 2.90625 -3.34375 C 2.707031 -3.25 2.46875 -3.203125 2.1875 -3.203125 C 1.550781 -3.203125 1.097656 -3.398438 0.828125 -3.796875 C 0.566406 -4.203125 0.4375 -4.785156 0.4375 -5.546875 C 0.4375 -6.335938 0.597656 -6.972656 0.921875 -7.453125 C 1.253906 -7.929688 1.765625 -8.171875 2.453125 -8.171875 C 3.117188 -8.171875 3.613281 -7.925781 3.9375 -7.4375 C 4.269531 -6.945312 4.4375 -6.304688 4.4375 -5.515625 L 4.4375 -2.796875 C 4.4375 -1.921875 4.28125 -1.21875 3.96875 -0.6875 C 3.664062 -0.164062 3.160156 0.09375 2.453125 0.09375 Z M 2.453125 -4.015625 C 2.847656 -4.015625 3.148438 -4.195312 3.359375 -4.5625 L 3.359375 -5.765625 C 3.359375 -6.785156 3.054688 -7.296875 2.453125 -7.296875 C 2.117188 -7.296875 1.878906 -7.15625 1.734375 -6.875 C 1.585938 -6.59375 1.515625 -6.234375 1.515625 -5.796875 C 1.515625 -5.390625 1.53125 -5.066406 1.5625 -4.828125 C 1.601562 -4.585938 1.6875 -4.390625 1.8125 -4.234375 C 1.945312 -4.085938 2.160156 -4.015625 2.453125 -4.015625 Z M 2.453125 -4.015625 "/></g></g></g><g fill="#000000" fill-opacity="1"><g transform="translate(121.85054, 196.897429)"><g><path d="M 2.5625 0.09375 C 1.894531 0.09375 1.394531 -0.148438 1.0625 -0.640625 C 0.738281 -1.128906 0.578125 -1.769531 0.578125 -2.5625 L 0.578125 -5.296875 C 0.578125 -6.171875 0.726562 -6.867188 1.03125 -7.390625 C 1.34375 -7.910156 1.851562 -8.171875 2.5625 -8.171875 C 3.195312 -8.171875 3.679688 -8 4.015625 -7.65625 C 4.359375 -7.320312 4.535156 -6.835938 4.546875 -6.203125 L 4.5625 -6.078125 L 3.484375 -6.078125 C 3.484375 -6.492188 3.414062 -6.800781 3.28125 -7 C 3.144531 -7.195312 2.90625 -7.296875 2.5625 -7.296875 C 1.957031 -7.296875 1.65625 -6.71875 1.65625 -5.5625 L 1.65625 -4.328125 C 1.757812 -4.503906 1.910156 -4.640625 2.109375 -4.734375 C 2.316406 -4.835938 2.554688 -4.890625 2.828125 -4.890625 C 3.460938 -4.890625 3.910156 -4.6875 4.171875 -4.28125 C 4.441406 -3.882812 4.578125 -3.304688 4.578125 -2.546875 C 4.578125 -1.753906 4.410156 -1.113281 4.078125 -0.625 C 3.753906 -0.144531 3.25 0.09375 2.5625 0.09375 Z M 2.5625 -0.796875 C 2.894531 -0.796875 3.132812 -0.929688 3.28125 -1.203125 C 3.425781 -1.484375 3.5 -1.847656 3.5 -2.296875 C 3.5 -2.703125 3.484375 -3.023438 3.453125 -3.265625 C 3.421875 -3.503906 3.335938 -3.695312 3.203125 -3.84375 C 3.066406 -4 2.851562 -4.078125 2.5625 -4.078125 C 2.363281 -4.078125 2.1875 -4.023438 2.03125 -3.921875 C 1.875 -3.816406 1.75 -3.6875 1.65625 -3.53125 L 1.65625 -2.3125 C 1.65625 -1.851562 1.722656 -1.484375 1.859375 -1.203125 C 2.003906 -0.929688 2.238281 -0.796875 2.5625 -0.796875 Z M 2.5625 -0.796875 "/></g></g></g><g fill="#000000" fill-opacity="1"><g transform="translate(128.908551, 196.897429)"><g><path d="M 0.625 -8.09375 L 2.390625 -8.09375 C 3.265625 -8.09375 3.882812 -7.894531 4.25 -7.5 C 4.613281 -7.101562 4.796875 -6.476562 4.796875 -5.625 L 4.796875 -2.65625 C 4.796875 -1.757812 4.613281 -1.09375 4.25 -0.65625 C 3.894531 -0.21875 3.304688 0 2.484375 0 L 0.625 0 Z M 2.40625 -0.8125 C 2.789062 -0.8125 3.070312 -0.882812 3.25 -1.03125 C 3.425781 -1.1875 3.535156 -1.394531 3.578125 -1.65625 C 3.628906 -1.925781 3.65625 -2.328125 3.65625 -2.859375 L 3.65625 -5.484375 C 3.65625 -5.953125 3.625 -6.304688 3.5625 -6.546875 C 3.507812 -6.785156 3.390625 -6.960938 3.203125 -7.078125 C 3.023438 -7.203125 2.75 -7.265625 2.375 -7.265625 L 1.765625 -7.265625 L 1.765625 -0.8125 Z M 2.40625 -0.8125 "/></g></g></g><g clip-path="url(#bdf38dd5fb)"><g clip-path="url(#81dd7a9071)"><path fill="#e36265" d="M 37.5 226.082031 L 183.398438 226.082031 L 183.398438 252.449219 L 37.5 252.449219 Z M 37.5 226.082031 " fill-opacity="1" fill-rule="nonzero"/></g></g><g fill="#000000" fill-opacity="1"><g transform="translate(87.663435, 244.080805)"><g><path d="M 0.75 -2.90625 L 0.3125 -2.90625 L 0.3125 -3.703125 L 0.875 -3.703125 L 1.015625 -4.671875 L 0.34375 -4.671875 L 0.34375 -5.484375 L 1.125 -5.484375 L 1.5 -8.09375 L 2.5625 -8.09375 L 2.1875 -5.484375 L 3.09375 -5.484375 L 3.46875 -8.09375 L 4.53125 -8.09375 L 4.15625 -5.484375 L 4.5625 -5.484375 L 4.5625 -4.671875 L 4.046875 -4.671875 L 3.890625 -3.703125 L 4.53125 -3.703125 L 4.53125 -2.90625 L 3.78125 -2.90625 L 3.359375 0 L 2.296875 0 L 2.703125 -2.90625 L 1.8125 -2.90625 L 1.40625 0 L 0.34375 0 Z M 2.828125 -3.703125 L 2.96875 -4.671875 L 2.078125 -4.671875 L 1.9375 -3.703125 Z M 2.828125 -3.703125 "/></g></g></g><g fill="#000000" fill-opacity="1"><g transform="translate(94.551514, 244.080805)"><g><path d="M 0.625 -8.09375 L 3.765625 -8.09375 L 3.765625 -7.265625 L 1.765625 -7.265625 L 1.765625 -4.578125 L 3.390625 -4.578125 L 3.390625 -3.78125 L 1.765625 -3.78125 L 1.765625 -0.8125 L 3.796875 -0.8125 L 3.796875 0 L 0.625 0 Z M 0.625 -8.09375 "/></g></g></g><g fill="#000000" fill-opacity="1"><g transform="translate(100.649906, 244.080805)"><g><path d="M 2.375 0.09375 C 1.726562 0.09375 1.238281 -0.0859375 0.90625 -0.453125 C 0.570312 -0.816406 0.40625 -1.328125 0.40625 -1.984375 L 0.40625 -2.265625 L 1.453125 -2.265625 L 1.453125 -2.078125 C 1.472656 -1.660156 1.546875 -1.34375 1.671875 -1.125 C 1.804688 -0.90625 2.039062 -0.796875 2.375 -0.796875 C 2.738281 -0.796875 2.984375 -0.921875 3.109375 -1.171875 C 3.242188 -1.421875 3.3125 -1.796875 3.3125 -2.296875 C 3.3125 -2.742188 3.226562 -3.09375 3.0625 -3.34375 C 2.894531 -3.601562 2.625 -3.75 2.25 -3.78125 C 2.21875 -3.789062 2.164062 -3.796875 2.09375 -3.796875 L 2.09375 -4.859375 L 2.234375 -4.859375 C 2.617188 -4.867188 2.894531 -4.96875 3.0625 -5.15625 C 3.226562 -5.34375 3.3125 -5.65625 3.3125 -6.09375 C 3.3125 -6.488281 3.242188 -6.785156 3.109375 -6.984375 C 2.972656 -7.191406 2.734375 -7.296875 2.390625 -7.296875 C 2.046875 -7.296875 1.804688 -7.1875 1.671875 -6.96875 C 1.546875 -6.75 1.472656 -6.425781 1.453125 -6 L 1.453125 -5.828125 L 0.40625 -5.828125 L 0.40625 -6.09375 C 0.40625 -6.757812 0.570312 -7.269531 0.90625 -7.625 C 1.238281 -7.988281 1.734375 -8.171875 2.390625 -8.171875 C 3.046875 -8.171875 3.539062 -7.988281 3.875 -7.625 C 4.207031 -7.257812 4.375 -6.75 4.375 -6.09375 C 4.375 -5.613281 4.269531 -5.222656 4.0625 -4.921875 C 3.863281 -4.628906 3.582031 -4.425781 3.21875 -4.3125 C 3.582031 -4.207031 3.863281 -3.976562 4.0625 -3.625 C 4.269531 -3.28125 4.375 -2.835938 4.375 -2.296875 C 4.375 -1.535156 4.210938 -0.945312 3.890625 -0.53125 C 3.566406 -0.113281 3.0625 0.09375 2.375 0.09375 Z M 2.375 0.09375 "/></g></g></g><g fill="#000000" fill-opacity="1"><g transform="translate(107.448024, 244.080805)"><g><path d="M 2.5625 0.09375 C 1.894531 0.09375 1.394531 -0.148438 1.0625 -0.640625 C 0.738281 -1.128906 0.578125 -1.769531 0.578125 -2.5625 L 0.578125 -5.296875 C 0.578125 -6.171875 0.726562 -6.867188 1.03125 -7.390625 C 1.34375 -7.910156 1.851562 -8.171875 2.5625 -8.171875 C 3.195312 -8.171875 3.679688 -8 4.015625 -7.65625 C 4.359375 -7.320312 4.535156 -6.835938 4.546875 -6.203125 L 4.5625 -6.078125 L 3.484375 -6.078125 C 3.484375 -6.492188 3.414062 -6.800781 3.28125 -7 C 3.144531 -7.195312 2.90625 -7.296875 2.5625 -7.296875 C 1.957031 -7.296875 1.65625 -6.71875 1.65625 -5.5625 L 1.65625 -4.328125 C 1.757812 -4.503906 1.910156 -4.640625 2.109375 -4.734375 C 2.316406 -4.835938 2.554688 -4.890625 2.828125 -4.890625 C 3.460938 -4.890625 3.910156 -4.6875 4.171875 -4.28125 C 4.441406 -3.882812 4.578125 -3.304688 4.578125 -2.546875 C 4.578125 -1.753906 4.410156 -1.113281 4.078125 -0.625 C 3.753906 -0.144531 3.25 0.09375 2.5625 0.09375 Z M 2.5625 -0.796875 C 2.894531 -0.796875 3.132812 -0.929688 3.28125 -1.203125 C 3.425781 -1.484375 3.5 -1.847656 3.5 -2.296875 C 3.5 -2.703125 3.484375 -3.023438 3.453125 -3.265625 C 3.421875 -3.503906 3.335938 -3.695312 3.203125 -3.84375 C 3.066406 -4 2.851562 -4.078125 2.5625 -4.078125 C 2.363281 -4.078125 2.1875 -4.023438 2.03125 -3.921875 C 1.875 -3.816406 1.75 -3.6875 1.65625 -3.53125 L 1.65625 -2.3125 C 1.65625 -1.851562 1.722656 -1.484375 1.859375 -1.203125 C 2.003906 -0.929688 2.238281 -0.796875 2.5625 -0.796875 Z M 2.5625 -0.796875 "/></g></g></g><g fill="#000000" fill-opacity="1"><g transform="translate(114.506037, 244.080805)"><g><path d="M 0.40625 -0.765625 L 2.46875 -3.96875 C 2.570312 -4.125 2.640625 -4.222656 2.671875 -4.265625 C 2.898438 -4.640625 3.066406 -4.945312 3.171875 -5.1875 C 3.285156 -5.4375 3.34375 -5.738281 3.34375 -6.09375 C 3.34375 -6.476562 3.273438 -6.773438 3.140625 -6.984375 C 3.015625 -7.191406 2.8125 -7.296875 2.53125 -7.296875 C 1.882812 -7.296875 1.5625 -6.796875 1.5625 -5.796875 L 1.5625 -5.53125 L 0.5 -5.53125 L 0.5 -5.8125 C 0.5 -6.570312 0.65625 -7.15625 0.96875 -7.5625 C 1.28125 -7.96875 1.785156 -8.171875 2.484375 -8.171875 C 3.117188 -8.171875 3.597656 -7.988281 3.921875 -7.625 C 4.253906 -7.257812 4.421875 -6.742188 4.421875 -6.078125 C 4.421875 -5.753906 4.378906 -5.460938 4.296875 -5.203125 C 4.222656 -4.941406 4.132812 -4.71875 4.03125 -4.53125 C 3.925781 -4.351562 3.757812 -4.085938 3.53125 -3.734375 L 1.671875 -0.90625 L 4.234375 -0.90625 L 4.234375 0 L 0.40625 0 Z M 0.40625 -0.765625 "/></g></g></g><g fill="#000000" fill-opacity="1"><g transform="translate(121.314143, 244.080805)"><g><path d="M 2.5625 0.09375 C 1.894531 0.09375 1.394531 -0.148438 1.0625 -0.640625 C 0.738281 -1.128906 0.578125 -1.769531 0.578125 -2.5625 L 0.578125 -5.296875 C 0.578125 -6.171875 0.726562 -6.867188 1.03125 -7.390625 C 1.34375 -7.910156 1.851562 -8.171875 2.5625 -8.171875 C 3.195312 -8.171875 3.679688 -8 4.015625 -7.65625 C 4.359375 -7.320312 4.535156 -6.835938 4.546875 -6.203125 L 4.5625 -6.078125 L 3.484375 -6.078125 C 3.484375 -6.492188 3.414062 -6.800781 3.28125 -7 C 3.144531 -7.195312 2.90625 -7.296875 2.5625 -7.296875 C 1.957031 -7.296875 1.65625 -6.71875 1.65625 -5.5625 L 1.65625 -4.328125 C 1.757812 -4.503906 1.910156 -4.640625 2.109375 -4.734375 C 2.316406 -4.835938 2.554688 -4.890625 2.828125 -4.890625 C 3.460938 -4.890625 3.910156 -4.6875 4.171875 -4.28125 C 4.441406 -3.882812 4.578125 -3.304688 4.578125 -2.546875 C 4.578125 -1.753906 4.410156 -1.113281 4.078125 -0.625 C 3.753906 -0.144531 3.25 0.09375 2.5625 0.09375 Z M 2.5625 -0.796875 C 2.894531 -0.796875 3.132812 -0.929688 3.28125 -1.203125 C 3.425781 -1.484375 3.5 -1.847656 3.5 -2.296875 C 3.5 -2.703125 3.484375 -3.023438 3.453125 -3.265625 C 3.421875 -3.503906 3.335938 -3.695312 3.203125 -3.84375 C 3.066406 -4 2.851562 -4.078125 2.5625 -4.078125 C 2.363281 -4.078125 2.1875 -4.023438 2.03125 -3.921875 C 1.875 -3.816406 1.75 -3.6875 1.65625 -3.53125 L 1.65625 -2.3125 C 1.65625 -1.851562 1.722656 -1.484375 1.859375 -1.203125 C 2.003906 -0.929688 2.238281 -0.796875 2.5625 -0.796875 Z M 2.5625 -0.796875 "/></g></g></g><g fill="#000000" fill-opacity="1"><g transform="translate(128.372155, 244.080805)"><g><path d="M 2.4375 0.078125 C 1.726562 0.078125 1.222656 -0.117188 0.921875 -0.515625 C 0.617188 -0.910156 0.46875 -1.492188 0.46875 -2.265625 L 1.546875 -2.265625 C 1.546875 -1.816406 1.601562 -1.453125 1.71875 -1.171875 C 1.84375 -0.898438 2.085938 -0.765625 2.453125 -0.765625 C 2.722656 -0.765625 2.925781 -0.84375 3.0625 -1 C 3.195312 -1.164062 3.28125 -1.378906 3.3125 -1.640625 C 3.351562 -1.910156 3.375 -2.265625 3.375 -2.703125 C 3.375 -3.109375 3.347656 -3.429688 3.296875 -3.671875 C 3.253906 -3.921875 3.164062 -4.109375 3.03125 -4.234375 C 2.90625 -4.367188 2.710938 -4.4375 2.453125 -4.4375 C 2.253906 -4.4375 2.078125 -4.367188 1.921875 -4.234375 C 1.765625 -4.109375 1.644531 -3.953125 1.5625 -3.765625 L 0.65625 -3.765625 L 0.65625 -8.09375 L 4.140625 -8.09375 L 4.140625 -7.03125 L 1.625 -7.03125 L 1.546875 -4.796875 C 1.835938 -5.085938 2.226562 -5.234375 2.71875 -5.234375 C 3.34375 -5.234375 3.785156 -5.019531 4.046875 -4.59375 C 4.304688 -4.175781 4.4375 -3.59375 4.4375 -2.84375 C 4.4375 -1.914062 4.285156 -1.195312 3.984375 -0.6875 C 3.691406 -0.175781 3.175781 0.078125 2.4375 0.078125 Z M 2.4375 0.078125 "/></g></g></g><g fill="#000000" fill-opacity="1"><g transform="translate(88.120465, 102.573684)"><g><path d="M 0.75 -2.90625 L 0.3125 -2.90625 L 0.3125 -3.703125 L 0.875 -3.703125 L 1.015625 -4.671875 L 0.34375 -4.671875 L 0.34375 -5.484375 L 1.125 -5.484375 L 1.5 -8.09375 L 2.5625 -8.09375 L 2.1875 -5.484375 L 3.09375 -5.484375 L 3.46875 -8.09375 L 4.53125 -8.09375 L 4.15625 -5.484375 L 4.5625 -5.484375 L 4.5625 -4.671875 L 4.046875 -4.671875 L 3.890625 -3.703125 L 4.53125 -3.703125 L 4.53125 -2.90625 L 3.78125 -2.90625 L 3.359375 0 L 2.296875 0 L 2.703125 -2.90625 L 1.8125 -2.90625 L 1.40625 0 L 0.34375 0 Z M 2.828125 -3.703125 L 2.96875 -4.671875 L 2.078125 -4.671875 L 1.9375 -3.703125 Z M 2.828125 -3.703125 "/></g></g></g><g fill="#000000" fill-opacity="1"><g transform="translate(95.008545, 102.573684)"><g><path d="M 0.625 -8.09375 L 3.765625 -8.09375 L 3.765625 -7.296875 L 1.765625 -7.296875 L 1.765625 -4.59375 L 3.3125 -4.59375 L 3.3125 -3.796875 L 1.765625 -3.796875 L 1.765625 0 L 0.625 0 Z M 0.625 -8.09375 "/></g></g></g><g fill="#000000" fill-opacity="1"><g transform="translate(100.946994, 102.573684)"><g><path d="M 0.40625 -0.765625 L 2.46875 -3.96875 C 2.570312 -4.125 2.640625 -4.222656 2.671875 -4.265625 C 2.898438 -4.640625 3.066406 -4.945312 3.171875 -5.1875 C 3.285156 -5.4375 3.34375 -5.738281 3.34375 -6.09375 C 3.34375 -6.476562 3.273438 -6.773438 3.140625 -6.984375 C 3.015625 -7.191406 2.8125 -7.296875 2.53125 -7.296875 C 1.882812 -7.296875 1.5625 -6.796875 1.5625 -5.796875 L 1.5625 -5.53125 L 0.5 -5.53125 L 0.5 -5.8125 C 0.5 -6.570312 0.65625 -7.15625 0.96875 -7.5625 C 1.28125 -7.96875 1.785156 -8.171875 2.484375 -8.171875 C 3.117188 -8.171875 3.597656 -7.988281 3.921875 -7.625 C 4.253906 -7.257812 4.421875 -6.742188 4.421875 -6.078125 C 4.421875 -5.753906 4.378906 -5.460938 4.296875 -5.203125 C 4.222656 -4.941406 4.132812 -4.71875 4.03125 -4.53125 C 3.925781 -4.351562 3.757812 -4.085938 3.53125 -3.734375 L 1.671875 -0.90625 L 4.234375 -0.90625 L 4.234375 0 L 0.40625 0 Z M 0.40625 -0.765625 "/></g></g></g><g fill="#000000" fill-opacity="1"><g transform="translate(107.755102, 102.573684)"><g><path d="M 2.375 0.09375 C 1.726562 0.09375 1.238281 -0.0859375 0.90625 -0.453125 C 0.570312 -0.816406 0.40625 -1.328125 0.40625 -1.984375 L 0.40625 -2.265625 L 1.453125 -2.265625 L 1.453125 -2.078125 C 1.472656 -1.660156 1.546875 -1.34375 1.671875 -1.125 C 1.804688 -0.90625 2.039062 -0.796875 2.375 -0.796875 C 2.738281 -0.796875 2.984375 -0.921875 3.109375 -1.171875 C 3.242188 -1.421875 3.3125 -1.796875 3.3125 -2.296875 C 3.3125 -2.742188 3.226562 -3.09375 3.0625 -3.34375 C 2.894531 -3.601562 2.625 -3.75 2.25 -3.78125 C 2.21875 -3.789062 2.164062 -3.796875 2.09375 -3.796875 L 2.09375 -4.859375 L 2.234375 -4.859375 C 2.617188 -4.867188 2.894531 -4.96875 3.0625 -5.15625 C 3.226562 -5.34375 3.3125 -5.65625 3.3125 -6.09375 C 3.3125 -6.488281 3.242188 -6.785156 3.109375 -6.984375 C 2.972656 -7.191406 2.734375 -7.296875 2.390625 -7.296875 C 2.046875 -7.296875 1.804688 -7.1875 1.671875 -6.96875 C 1.546875 -6.75 1.472656 -6.425781 1.453125 -6 L 1.453125 -5.828125 L 0.40625 -5.828125 L 0.40625 -6.09375 C 0.40625 -6.757812 0.570312 -7.269531 0.90625 -7.625 C 1.238281 -7.988281 1.734375 -8.171875 2.390625 -8.171875 C 3.046875 -8.171875 3.539062 -7.988281 3.875 -7.625 C 4.207031 -7.257812 4.375 -6.75 4.375 -6.09375 C 4.375 -5.613281 4.269531 -5.222656 4.0625 -4.921875 C 3.863281 -4.628906 3.582031 -4.425781 3.21875 -4.3125 C 3.582031 -4.207031 3.863281 -3.976562 4.0625 -3.625 C 4.269531 -3.28125 4.375 -2.835938 4.375 -2.296875 C 4.375 -1.535156 4.210938 -0.945312 3.890625 -0.53125 C 3.566406 -0.113281 3.0625 0.09375 2.375 0.09375 Z M 2.375 0.09375 "/></g></g></g><g fill="#000000" fill-opacity="1"><g transform="translate(114.55322, 102.573684)"><g><path d="M 0.625 -8.09375 L 2.484375 -8.09375 C 3.222656 -8.09375 3.769531 -7.925781 4.125 -7.59375 C 4.476562 -7.269531 4.65625 -6.757812 4.65625 -6.0625 C 4.65625 -5.03125 4.265625 -4.460938 3.484375 -4.359375 C 3.960938 -4.242188 4.3125 -4.019531 4.53125 -3.6875 C 4.757812 -3.351562 4.875 -2.894531 4.875 -2.3125 C 4.875 -1.582031 4.703125 -1.015625 4.359375 -0.609375 C 4.015625 -0.203125 3.492188 0 2.796875 0 L 0.625 0 Z M 2.4375 -4.71875 C 2.894531 -4.71875 3.210938 -4.816406 3.390625 -5.015625 C 3.578125 -5.222656 3.671875 -5.570312 3.671875 -6.0625 C 3.671875 -6.425781 3.613281 -6.691406 3.5 -6.859375 C 3.394531 -7.035156 3.234375 -7.144531 3.015625 -7.1875 C 2.796875 -7.238281 2.46875 -7.265625 2.03125 -7.265625 L 1.765625 -7.265625 L 1.765625 -4.71875 Z M 2.515625 -0.8125 C 2.847656 -0.8125 3.101562 -0.863281 3.28125 -0.96875 C 3.46875 -1.070312 3.597656 -1.226562 3.671875 -1.4375 C 3.753906 -1.65625 3.796875 -1.945312 3.796875 -2.3125 C 3.796875 -2.832031 3.6875 -3.21875 3.46875 -3.46875 C 3.257812 -3.726562 2.914062 -3.859375 2.4375 -3.859375 L 1.765625 -3.859375 L 1.765625 -0.8125 Z M 2.515625 -0.8125 "/></g></g></g><g fill="#000000" fill-opacity="1"><g transform="translate(121.82115, 102.573684)"><g><path d="M 2.375 0.09375 C 1.726562 0.09375 1.238281 -0.0859375 0.90625 -0.453125 C 0.570312 -0.816406 0.40625 -1.328125 0.40625 -1.984375 L 0.40625 -2.265625 L 1.453125 -2.265625 L 1.453125 -2.078125 C 1.472656 -1.660156 1.546875 -1.34375 1.671875 -1.125 C 1.804688 -0.90625 2.039062 -0.796875 2.375 -0.796875 C 2.738281 -0.796875 2.984375 -0.921875 3.109375 -1.171875 C 3.242188 -1.421875 3.3125 -1.796875 3.3125 -2.296875 C 3.3125 -2.742188 3.226562 -3.09375 3.0625 -3.34375 C 2.894531 -3.601562 2.625 -3.75 2.25 -3.78125 C 2.21875 -3.789062 2.164062 -3.796875 2.09375 -3.796875 L 2.09375 -4.859375 L 2.234375 -4.859375 C 2.617188 -4.867188 2.894531 -4.96875 3.0625 -5.15625 C 3.226562 -5.34375 3.3125 -5.65625 3.3125 -6.09375 C 3.3125 -6.488281 3.242188 -6.785156 3.109375 -6.984375 C 2.972656 -7.191406 2.734375 -7.296875 2.390625 -7.296875 C 2.046875 -7.296875 1.804688 -7.1875 1.671875 -6.96875 C 1.546875 -6.75 1.472656 -6.425781 1.453125 -6 L 1.453125 -5.828125 L 0.40625 -5.828125 L 0.40625 -6.09375 C 0.40625 -6.757812 0.570312 -7.269531 0.90625 -7.625 C 1.238281 -7.988281 1.734375 -8.171875 2.390625 -8.171875 C 3.046875 -8.171875 3.539062 -7.988281 3.875 -7.625 C 4.207031 -7.257812 4.375 -6.75 4.375 -6.09375 C 4.375 -5.613281 4.269531 -5.222656 4.0625 -4.921875 C 3.863281 -4.628906 3.582031 -4.425781 3.21875 -4.3125 C 3.582031 -4.207031 3.863281 -3.976562 4.0625 -3.625 C 4.269531 -3.28125 4.375 -2.835938 4.375 -2.296875 C 4.375 -1.535156 4.210938 -0.945312 3.890625 -0.53125 C 3.566406 -0.113281 3.0625 0.09375 2.375 0.09375 Z M 2.375 0.09375 "/></g></g></g><g fill="#000000" fill-opacity="1"><g transform="translate(128.619266, 102.573684)"><g><path d="M 0.625 -8.09375 L 3.765625 -8.09375 L 3.765625 -7.265625 L 1.765625 -7.265625 L 1.765625 -4.578125 L 3.390625 -4.578125 L 3.390625 -3.78125 L 1.765625 -3.78125 L 1.765625 -0.8125 L 3.796875 -0.8125 L 3.796875 0 L 0.625 0 Z M 0.625 -8.09375 "/></g></g></g></svg>